<svg width="18" height="20" viewBox="0 0 18 20" fill="none" xmlns="http://www.w3.org/2000/svg">
<path fill-rule="evenodd" clip-rule="evenodd" d="M14 2.75H15C15.6904 2.75 16.25 3.30964 16.25 4V11.9997C15.6233 11.529 14.8442 11.25 14 11.25C12.6791 11.25 11.5177 11.9329 10.8497 12.965C10.3612 12.5208 9.71224 12.25 9 12.25C8.28776 12.25 7.63876 12.5208 7.15033 12.965C6.48228 11.9329 5.3209 11.25 4 11.25C3.1558 11.25 2.37675 11.529 1.75 11.9997V4C1.75 3.30964 2.30964 2.75 3 2.75H4C4.41421 2.75 4.75 2.41421 4.75 2C4.75 1.58579 4.41421 1.25 4 1.25H3C1.48122 1.25 0.25 2.48122 0.25 4V14.9059C0.25 14.9156 0.250185 14.9253 0.250553 14.9349C0.250185 14.9566 0.25 14.9783 0.25 15C0.25 17.0711 1.92893 18.75 4 18.75C6.07107 18.75 7.75 17.0711 7.75 15C7.75 14.3096 8.30964 13.75 9 13.75C9.69036 13.75 10.25 14.3096 10.25 15C10.25 17.0711 11.9289 18.75 14 18.75C16.0711 18.75 17.75 17.0711 17.75 15C17.75 14.9783 17.7498 14.9566 17.7494 14.9349C17.7498 14.9253 17.75 14.9156 17.75 14.9059V4C17.75 2.48122 16.5188 1.25 15 1.25H14C13.5858 1.25 13.25 1.58579 13.25 2C13.25 2.41421 13.5858 2.75 14 2.75ZM11.75 15C11.75 16.2426 12.7574 17.25 14 17.25C15.2426 17.25 16.25 16.2426 16.25 15C16.25 13.7574 15.2426 12.75 14 12.75C12.7574 12.75 11.75 13.7574 11.75 15ZM1.75 15C1.75 16.2426 2.75736 17.25 4 17.25C5.24264 17.25 6.25 16.2426 6.25 15C6.25 13.7574 5.24264 12.75 4 12.75C2.75736 12.75 1.75 13.7574 1.75 15Z" fill="#141124"/>
</svg>
