<svg width="24" height="24" viewBox="0 0 24 24" fill="none" xmlns="http://www.w3.org/2000/svg">
<g opacity="0.5">
<path fill-rule="evenodd" clip-rule="evenodd" d="M12.0001 21.75C17.3849 21.75 21.7501 17.3848 21.7501 12C21.7501 6.61522 17.3849 2.25 12.0001 2.25C6.61532 2.25 2.2501 6.61522 2.2501 12C2.2501 14.3554 3.09097 16.5746 4.56702 18.3107H2.31812C1.9039 18.3107 1.56812 18.6464 1.56812 19.0607C1.56812 19.4749 1.9039 19.8107 2.31812 19.8107L6.56076 19.8107C6.97497 19.8107 7.31076 19.4749 7.31076 19.0607V14.818C7.31076 14.4038 6.97497 14.068 6.56076 14.068C6.14654 14.068 5.81076 14.4038 5.81076 14.818V17.4556C4.49915 15.9698 3.7501 14.0466 3.7501 12C3.7501 7.44365 7.44375 3.75 12.0001 3.75C16.5564 3.75 20.2501 7.44365 20.2501 12C20.2501 16.5563 16.5564 20.25 12.0001 20.25C11.5859 20.25 11.2501 20.5858 11.2501 21C11.2501 21.4142 11.5859 21.75 12.0001 21.75ZM12.0001 7.05072C12.4143 7.05072 12.7501 7.3865 12.7501 7.80072V12.6893L15.1858 15.1251C15.4787 15.418 15.4787 15.8929 15.1858 16.1858C14.893 16.4786 14.4181 16.4786 14.1252 16.1858L11.4698 13.5303C11.3291 13.3897 11.2501 13.1989 11.2501 13V7.80072C11.2501 7.3865 11.5859 7.05072 12.0001 7.05072Z" fill="#141124"/>
</g>
</svg>
