<svg width="22" height="21" viewBox="0 0 22 21" fill="none" xmlns="http://www.w3.org/2000/svg">
<path fill-rule="evenodd" clip-rule="evenodd" d="M18 0.291687H3.99999C2.22808 0.291687 0.791656 1.72811 0.791656 3.50002V17.5C0.791656 19.2719 2.22808 20.7084 3.99999 20.7084H18C19.7719 20.7084 21.2083 19.2719 21.2083 17.5V3.50002C21.2083 1.72811 19.7719 0.291687 18 0.291687ZM2.54166 3.5C2.54166 2.69458 3.19457 2.04167 3.99999 2.04167H18C18.8054 2.04167 19.4583 2.69458 19.4583 3.5V17.5C19.4583 18.3054 18.8054 18.9583 18 18.9583H3.99999C3.19457 18.9583 2.54166 18.3054 2.54166 17.5V3.5ZM5.16666 5.54167H7.49999C7.98324 5.54167 8.37499 5.14992 8.37499 4.66667C8.37499 4.18342 7.98324 3.79167 7.49999 3.79167H5.16666C4.68341 3.79167 4.29166 4.18342 4.29166 4.66667C4.29166 5.14992 4.68341 5.54167 5.16666 5.54167ZM11 17.2083C13.7384 17.2083 15.9583 14.9884 15.9583 12.25C15.9583 9.51159 13.7384 7.29167 11 7.29167C8.26158 7.29167 6.04166 9.51159 6.04166 12.25C6.04166 14.9884 8.26158 17.2083 11 17.2083ZM11 15.4583C9.22808 15.4583 7.79166 14.0219 7.79166 12.25C7.79166 10.4781 9.22808 9.04165 11 9.04165C12.7719 9.04165 14.2083 10.4781 14.2083 12.25C14.2083 14.0219 12.7719 15.4583 11 15.4583Z" fill="#313131"/>
</svg>
