<svg width="24" height="24" viewBox="0 0 24 24" fill="none" xmlns="http://www.w3.org/2000/svg">
<path fill-rule="evenodd" clip-rule="evenodd" d="M11.8856 10.7003L17.226 5.3599C17.6165 4.96938 18.2496 4.96938 18.6402 5.3599C19.0307 5.75043 19.0307 6.38359 18.6402 6.77412L13.2998 12.1145L18.64 17.4547C19.0305 17.8452 19.0305 18.4783 18.64 18.8689C18.2495 19.2594 17.6163 19.2594 17.2258 18.8689L11.8856 13.5287L6.54542 18.8689C6.15489 19.2594 5.52173 19.2594 5.1312 18.8689C4.74068 18.4783 4.74068 17.8452 5.1312 17.4547L10.4714 12.1145L5.13103 6.77412C4.7405 6.38359 4.7405 5.75043 5.13103 5.3599C5.52155 4.96938 6.15472 4.96938 6.54524 5.3599L11.8856 10.7003Z" fill="#313131"/>
<path d="M17.226 5.3599L16.8724 5.00635V5.00635L17.226 5.3599ZM11.8856 10.7003L11.532 11.0538L11.8856 11.4074L12.2392 11.0538L11.8856 10.7003ZM18.6402 5.3599L18.9937 5.00635V5.00635L18.6402 5.3599ZM18.6402 6.77412L18.9937 7.12767L18.6402 6.77412ZM13.2998 12.1145L12.9463 11.7609L12.5927 12.1145L12.9463 12.468L13.2998 12.1145ZM11.8856 13.5287L12.2392 13.1751L11.8856 12.8216L11.532 13.1751L11.8856 13.5287ZM6.54542 18.8689L6.89897 19.2224L6.89897 19.2224L6.54542 18.8689ZM5.1312 18.8689L4.77765 19.2224H4.77765L5.1312 18.8689ZM5.1312 17.4547L4.77765 17.1011H4.77765L5.1312 17.4547ZM10.4714 12.1145L10.8249 12.468L11.1785 12.1145L10.8249 11.7609L10.4714 12.1145ZM5.13103 6.77412L4.77747 7.12767H4.77747L5.13103 6.77412ZM5.13103 5.3599L4.77747 5.00635L4.77747 5.00635L5.13103 5.3599ZM6.54524 5.3599L6.19169 5.71346L6.54524 5.3599ZM16.8724 5.00635L11.532 10.3467L12.2392 11.0538L17.5795 5.71346L16.8724 5.00635ZM18.9937 5.00635C18.4079 4.42056 17.4582 4.42056 16.8724 5.00635L17.5795 5.71346C17.7748 5.51819 18.0914 5.51819 18.2866 5.71346L18.9937 5.00635ZM18.9937 7.12767C19.5795 6.54188 19.5795 5.59214 18.9937 5.00635L18.2866 5.71346C18.4819 5.90872 18.4819 6.2253 18.2866 6.42056L18.9937 7.12767ZM13.6534 12.468L18.9937 7.12767L18.2866 6.42056L12.9463 11.7609L13.6534 12.468ZM18.9936 17.1011L13.6534 11.7609L12.9463 12.468L18.2864 17.8082L18.9936 17.1011ZM18.9936 19.2224C19.5793 18.6366 19.5793 17.6869 18.9936 17.1011L18.2864 17.8082C18.4817 18.0035 18.4817 18.3201 18.2864 18.5153L18.9936 19.2224ZM16.8722 19.2224C17.458 19.8082 18.4078 19.8082 18.9936 19.2224L18.2864 18.5153C18.0912 18.7106 17.7746 18.7106 17.5793 18.5153L16.8722 19.2224ZM11.532 13.8822L16.8722 19.2224L17.5793 18.5153L12.2392 13.1751L11.532 13.8822ZM6.89897 19.2224L12.2392 13.8822L11.532 13.1751L6.19186 18.5153L6.89897 19.2224ZM4.77765 19.2224C5.36344 19.8082 6.31318 19.8082 6.89897 19.2224L6.19186 18.5153C5.9966 18.7106 5.68002 18.7106 5.48476 18.5153L4.77765 19.2224ZM4.77765 17.1011C4.19186 17.6869 4.19186 18.6366 4.77765 19.2224L5.48476 18.5153C5.28949 18.3201 5.28949 18.0035 5.48476 17.8082L4.77765 17.1011ZM10.1178 11.7609L4.77765 17.1011L5.48476 17.8082L10.8249 12.468L10.1178 11.7609ZM4.77747 7.12767L10.1178 12.468L10.8249 11.7609L5.48458 6.42056L4.77747 7.12767ZM4.77747 5.00635C4.19169 5.59214 4.19169 6.54188 4.77747 7.12767L5.48458 6.42056C5.28932 6.2253 5.28932 5.90872 5.48458 5.71346L4.77747 5.00635ZM6.89879 5.00635C6.31301 4.42056 5.36326 4.42056 4.77747 5.00635L5.48458 5.71346C5.67984 5.51819 5.99643 5.51819 6.19169 5.71346L6.89879 5.00635ZM12.2392 10.3467L6.89879 5.00635L6.19169 5.71346L11.532 11.0538L12.2392 10.3467Z" fill="#313131"/>
</svg>
