<svg width="24" height="24" viewBox="0 0 24 24" fill="none" xmlns="http://www.w3.org/2000/svg">
<path fill-rule="evenodd" clip-rule="evenodd" d="M3 5.5C3 4.67157 3.67157 4 4.5 4H20.5C21.3284 4 22 4.67157 22 5.5C22 6.32843 21.3284 7 20.5 7H4.5C3.67157 7 3 6.32843 3 5.5ZM12 12C12 11.1716 12.6716 10.5 13.5 10.5H20.5C21.3284 10.5 22 11.1716 22 12C22 12.8284 21.3284 13.5 20.5 13.5H13.5C12.6716 13.5 12 12.8284 12 12ZM22 18.5C22 17.6716 21.3284 17 20.5 17H13.5C12.6716 17 12 17.6716 12 18.5C12 19.3284 12.6716 20 13.5 20H20.5C21.3284 20 22 19.3284 22 18.5Z" fill="#313131"/>
</svg>
