<svg width="24" height="24" viewBox="0 0 24 24" fill="none" xmlns="http://www.w3.org/2000/svg">
<path d="M23.0859 13.1016L14.2266 17.5312C13.6016 17.8438 12.8594 18 12 18C11.1406 18 10.3984 17.8438 9.77344 17.5312L0.914062 13.1016C0.304688 12.7891 0 12.418 0 11.9883C0 11.5586 0.304688 11.1953 0.914062 10.8984L3.21094 9.75L4.85156 10.5703L1.5 12L12 16.5L22.5 12L19.1484 10.5703L20.7891 9.75L23.0859 10.8984C23.6953 11.1953 24 11.5625 24 12C24 12.4375 23.6953 12.8047 23.0859 13.1016ZM23.0859 7.10156L14.2266 11.5312C13.6016 11.8438 12.8594 12 12 12C11.1406 12 10.3984 11.8438 9.77344 11.5312L0.914062 7.10156C0.304688 6.78906 0 6.41797 0 5.98828C0 5.55859 0.304688 5.1875 0.914062 4.875L9.77344 0.445312C10.3984 0.148438 11.1406 0 12 0C12.8594 0 13.6016 0.148438 14.2266 0.445312L23.0859 4.875C23.6953 5.1875 24 5.55859 24 5.98828C24 6.41797 23.6953 6.78906 23.0859 7.10156ZM12 1.5L1.5 6L12 10.5L22.5 6L12 1.5ZM0.914062 16.8984L3.21094 15.75L9.77344 19.0312C10.3984 19.3438 11.1406 19.5 12 19.5C12.8594 19.5 13.6016 19.3438 14.2266 19.0312L20.7891 15.75L23.0859 16.8984C23.6953 17.1953 24 17.5625 24 18C24 18.4375 23.6953 18.8047 23.0859 19.1016L14.2266 23.5312C13.6016 23.8438 12.8594 24 12 24C11.1406 24 10.3984 23.8438 9.77344 23.5312L0.914062 19.1016C0.304688 18.8047 0 18.4375 0 18C0 17.5625 0.304688 17.1953 0.914062 16.8984Z" fill="#F83B91"/>
</svg>
