<svg width="18" height="18" viewBox="0 0 18 18" fill="none" xmlns="http://www.w3.org/2000/svg">
<path fill-rule="evenodd" clip-rule="evenodd" d="M7.8261 7.8261V1.17391C7.8261 0.525579 8.35168 0 9.00001 0C9.64835 0 10.1739 0.525579 10.1739 1.17391V7.8261H16.8261C17.4744 7.8261 18 8.35168 18 9.00001C18 9.64835 17.4744 10.1739 16.8261 10.1739H10.1739V16.8261C10.1739 17.4744 9.64835 18 9.00001 18C8.35168 18 7.8261 17.4744 7.8261 16.8261V10.1739H1.17391C0.525579 10.1739 0 9.64835 0 9.00001C0 8.35168 0.525579 7.8261 1.17391 7.8261H7.8261Z" fill="#313131"/>
</svg>
