<svg width="26" height="24" viewBox="0 0 26 24" fill="none" xmlns="http://www.w3.org/2000/svg">
<path d="M17.4707 8.64656C16.8534 8.64656 16.353 9.14694 16.353 9.7642C16.353 10.3815 16.8534 10.8819 17.4707 10.8819H24.1766C24.7938 10.8819 25.2942 10.3815 25.2942 9.7642V3.05832C25.2942 2.44106 24.7938 1.94067 24.1766 1.94067C23.5593 1.94067 23.0589 2.44106 23.0589 3.05832V8.64656H17.4707Z" fill="black"/>
<path d="M20.3134 14.9801C18.9868 18.7352 15.3365 21.1601 11.3607 20.9275C7.38499 20.695 4.04236 17.8609 3.16261 13.9767C2.28287 10.0926 4.07812 6.09481 7.56563 4.17183C11.0531 2.24885 15.3921 2.86429 18.2073 5.68126L23.4063 10.5778C23.8557 11.001 24.563 10.9797 24.9862 10.5304C25.4094 10.081 25.3881 9.37366 24.9387 8.95049L19.764 4.07755C16.2694 0.579954 10.8457 -0.189349 6.48631 2.21438C2.12692 4.61811 -0.117144 9.61532 0.982537 14.4705C2.08222 19.3257 6.26051 22.8683 11.2302 23.159C16.1999 23.4498 20.7627 20.4185 22.421 15.7247C22.6267 15.1427 22.3215 14.5042 21.7395 14.2986C21.1575 14.093 20.519 14.3981 20.3134 14.9801Z" fill="black"/>
</svg>
