<svg width="28" height="28" viewBox="0 0 28 28" fill="none" xmlns="http://www.w3.org/2000/svg">
<path d="M24.6663 24.6666L17.9997 24.6666C17.2633 24.6666 16.6663 25.2636 16.6663 26C16.6663 26.7363 17.2633 27.3333 17.9997 27.3333L25.9997 27.3333C26.7361 27.3333 27.333 26.7363 27.333 26L27.333 18C27.333 17.2636 26.7361 16.6666 25.9997 16.6666C25.2633 16.6666 24.6663 17.2636 24.6663 18L24.6663 24.6666Z" fill="black"/>
<path d="M9.99967 3.33329C10.7361 3.33329 11.333 2.73634 11.333 1.99996C11.333 1.26358 10.7361 0.666626 9.99967 0.666626L1.99967 0.666626C1.26329 0.666626 0.66634 1.26358 0.66634 1.99996L0.666339 9.99996C0.666339 10.7363 1.26329 11.3333 1.99967 11.3333C2.73605 11.3333 3.33301 10.7363 3.33301 9.99996L3.33301 3.33329L9.99967 3.33329Z" fill="black"/>
<path d="M26.9425 25.0571L17.6092 15.7238C17.0885 15.2031 16.2442 15.2031 15.7235 15.7238C15.2028 16.2445 15.2028 17.0887 15.7235 17.6094L25.0569 26.9427C25.5776 27.4634 26.4218 27.4634 26.9425 26.9427C27.4632 26.422 27.4632 25.5778 26.9425 25.0571Z" fill="black"/>
<path d="M1.05703 2.94277L10.3904 12.2761C10.9111 12.7968 11.7553 12.7968 12.276 12.2761C12.7967 11.7554 12.7967 10.9112 12.276 10.3905L2.94265 1.05715C2.42195 0.536451 1.57773 0.536451 1.05703 1.05715C0.53633 1.57785 0.53633 2.42207 1.05703 2.94277Z" fill="black"/>
</svg>
