<svg width="24" height="24" viewBox="0 0 24 24" fill="none" xmlns="http://www.w3.org/2000/svg">
<path fill-rule="evenodd" clip-rule="evenodd" d="M10.5 16.75C6.49594 16.75 3.25 13.5041 3.25 9.5C3.25 5.49594 6.49594 2.25 10.5 2.25C14.5041 2.25 17.75 5.49594 17.75 9.5C17.75 11.2319 17.1427 12.8219 16.1295 14.0689L21.5303 19.4697C21.8232 19.7626 21.8232 20.2374 21.5303 20.5303C21.2374 20.8232 20.7626 20.8232 20.4697 20.5303L15.0689 15.1295C13.8219 16.1427 12.2319 16.75 10.5 16.75ZM10.5 15.25C13.6756 15.25 16.25 12.6756 16.25 9.5C16.25 6.32436 13.6756 3.75 10.5 3.75C7.32436 3.75 4.75 6.32436 4.75 9.5C4.75 12.6756 7.32436 15.25 10.5 15.25Z" fill="#141124"/>
<path d="M16.1295 14.0689L15.9527 14.2456L15.7933 14.0862L15.9355 13.9112L16.1295 14.0689ZM21.5303 19.4697L21.7071 19.2929H21.7071L21.5303 19.4697ZM21.5303 20.5303L21.7071 20.7071H21.7071L21.5303 20.5303ZM20.4697 20.5303L20.2929 20.7071H20.2929L20.4697 20.5303ZM15.0689 15.1295L14.9112 14.9355L15.0862 14.7933L15.2456 14.9527L15.0689 15.1295ZM3.5 9.5C3.5 13.366 6.63401 16.5 10.5 16.5V17C6.35786 17 3 13.6421 3 9.5H3.5ZM10.5 2.5C6.63401 2.5 3.5 5.63401 3.5 9.5H3C3 5.35786 6.35786 2 10.5 2V2.5ZM17.5 9.5C17.5 5.63401 14.366 2.5 10.5 2.5V2C14.6421 2 18 5.35786 18 9.5H17.5ZM15.9355 13.9112C16.9138 12.7072 17.5 11.1724 17.5 9.5H18C18 11.2914 17.3716 12.9367 16.3235 14.2265L15.9355 13.9112ZM16.3063 13.8921L21.7071 19.2929L21.3536 19.6464L15.9527 14.2456L16.3063 13.8921ZM21.7071 19.2929C22.0976 19.6834 22.0976 20.3166 21.7071 20.7071L21.3536 20.3536C21.5488 20.1583 21.5488 19.8417 21.3536 19.6464L21.7071 19.2929ZM21.7071 20.7071C21.3166 21.0976 20.6834 21.0976 20.2929 20.7071L20.6464 20.3536C20.8417 20.5488 21.1583 20.5488 21.3536 20.3536L21.7071 20.7071ZM20.2929 20.7071L14.8921 15.3063L15.2456 14.9527L20.6464 20.3536L20.2929 20.7071ZM10.5 16.5C12.1724 16.5 13.7072 15.9138 14.9112 14.9355L15.2265 15.3235C13.9367 16.3716 12.2914 17 10.5 17V16.5ZM16.5 9.5C16.5 12.8137 13.8137 15.5 10.5 15.5V15C13.5376 15 16 12.5376 16 9.5H16.5ZM10.5 3.5C13.8137 3.5 16.5 6.18629 16.5 9.5H16C16 6.46243 13.5376 4 10.5 4V3.5ZM4.5 9.5C4.5 6.18629 7.18629 3.5 10.5 3.5V4C7.46243 4 5 6.46243 5 9.5H4.5ZM10.5 15.5C7.18629 15.5 4.5 12.8137 4.5 9.5H5C5 12.5376 7.46243 15 10.5 15V15.5Z" fill="#313131"/>
</svg>
