<svg width="22" height="23" viewBox="0 0 22 23" fill="none" xmlns="http://www.w3.org/2000/svg">
<path fill-rule="evenodd" clip-rule="evenodd" d="M1.75 1.25C1.75 0.835786 1.41421 0.5 1 0.5C0.585786 0.5 0.25 0.835786 0.25 1.25V2.74981C0.25 4.82088 1.92893 6.49981 4 6.49981H18C20.0711 6.49981 21.75 4.82088 21.75 2.74982V1.25C21.75 0.835786 21.4142 0.5 21 0.5C20.5858 0.5 20.25 0.835786 20.25 1.25V2.74982C20.25 3.99246 19.2426 4.99981 18 4.99981H4C2.75736 4.99981 1.75 3.99246 1.75 2.74981V1.25ZM4 7.99993C1.92893 7.99993 0.25 9.67887 0.25 11.7499V18.7494C0.25 20.8205 1.92893 22.4994 4 22.4994H18C20.0711 22.4994 21.75 20.8205 21.75 18.7494V11.7499C21.75 9.67886 20.0711 7.99993 18 7.99993H4ZM1.75 11.7499C1.75 10.5073 2.75736 9.49993 4 9.49993H18C19.2426 9.49993 20.25 10.5073 20.25 11.7499V18.7494C20.25 19.992 19.2426 20.9994 18 20.9994H4C2.75736 20.9994 1.75 19.992 1.75 18.7494V11.7499Z" fill="white"/>
</svg>
